<svg width="379" height="92" viewBox="0 0 379 92" fill="none" xmlns="http://www.w3.org/2000/svg">
<path d="M42.9205 8.13356L43.4205 9.86356C42.8405 14.8636 38.3405 15.8536 33.9405 16.6036C30.6205 17.1702 27.9538 18.5302 25.9405 20.6836C24.5605 22.1636 23.4605 24.6836 23.7805 26.7736C24.4338 30.9536 25.3805 33.9369 26.6205 35.7236C29.1605 39.3636 33.3238 40.8369 39.1105 40.1436C40.8171 39.9436 42.5071 39.5602 44.1805 38.9936C53.1805 35.9436 57.6405 44.3836 58.0505 51.6936C58.4505 58.9036 50.1405 60.9836 44.6205 61.9136C40.2105 62.6636 36.7605 59.9336 34.5505 56.0736C34.0771 55.2402 33.7705 54.3936 33.6305 53.5336C33.1838 50.7602 32.1738 48.4436 30.6005 46.5836C28.8538 44.5236 26.6605 43.2302 24.0205 42.7036C20.2205 41.9536 15.7805 43.2136 12.0505 44.1436C9.00048 44.9036 6.28048 44.5036 3.67048 42.8936C2.62381 42.2469 1.91715 41.3902 1.55048 40.3236C0.190479 36.4036 -1.24952 31.3536 1.84048 27.9136C3.46048 26.1136 5.24715 25.0136 7.20048 24.6136C12.7405 23.4936 17.0971 21.8669 20.2705 19.7336L22.3905 15.6836C22.5505 13.9502 22.2705 11.6536 21.5505 8.79356C20.6305 5.13356 23.0805 1.97356 26.6505 1.14356C30.2905 0.293561 36.5505 -1.24644 39.5905 1.84356C41.2771 3.56356 42.3871 5.66023 42.9205 8.13356Z" fill="#33C173"/>
<path d="M53.1605 27.6136C52.7138 27.1136 52.4105 26.5402 52.2505 25.8936C51.8838 24.3869 51.4705 22.8469 51.0105 21.2736C49.2205 15.1436 56.1805 14.2936 60.0305 13.3736C64.4605 12.3136 68.3405 14.0536 70.3005 18.2336C71.1205 19.9936 72.0872 21.6402 73.2005 23.1736C76.4405 27.6536 81.9105 29.4236 87.1905 27.6736C95.2005 25.0236 100.46 30.5036 102.53 37.5536C103.237 39.9469 102.744 41.9936 101.05 43.6936C98.0705 46.6936 92.5405 45.8236 90.1605 49.8936C88.9338 52.0002 88.3638 54.1369 88.4505 56.3036C88.6205 60.3136 91.3205 63.7436 92.1905 67.7236C93.1705 72.2102 91.5238 75.6369 87.2505 78.0036C83.6372 80.0102 79.8272 80.5436 75.8205 79.6036C74.9472 79.3969 74.2438 78.9836 73.7105 78.3636C72.9105 77.4336 71.9805 76.8036 71.3505 75.7436C69.7572 73.0702 68.4972 69.8869 67.5705 66.1936C67.0372 64.0936 67.2372 62.2169 68.1705 60.5636C70.4905 56.4536 74.3505 56.0836 78.1605 54.4036C83.8938 51.8969 85.6838 47.6236 83.5305 41.5836C82.9572 39.9702 82.1138 38.1469 81.0005 36.1136C79.1205 32.6836 75.8305 30.8236 72.2405 30.0236C67.4205 28.9436 61.9705 33.0036 57.7305 31.0236C55.9772 30.1969 54.4538 29.0602 53.1605 27.6136Z" fill="#33C173"/>
<path d="M49.4705 26.1436C46.2238 26.2836 43.0038 26.7202 39.8105 27.4536C38.6638 27.7136 36.5605 28.1336 33.5005 28.7136C31.2272 29.1402 29.1605 29.7802 27.3005 30.6336C25.2605 24.7069 27.4072 20.9669 33.7405 19.4136C35.8305 18.9036 37.9105 18.1836 39.9605 18.1636C45.1205 18.1236 48.2905 20.7836 49.4705 26.1436Z" fill="#6FC673"/>
<path d="M49.4705 26.1436L51.5505 29.9736C50.3572 31.5536 48.8672 32.0202 47.0805 31.3736C46.9344 31.3207 46.7782 31.3022 46.6238 31.3195C46.4694 31.3369 46.3212 31.3896 46.1905 31.4736C45.8638 31.6936 45.5038 31.8069 45.1105 31.8136C44.5572 31.8269 44.3638 31.5669 44.5305 31.0336C44.7838 30.2269 44.6672 29.5536 44.1805 29.0136C43.6138 28.3802 43.3305 28.4902 43.3305 29.3436V32.0036C43.3305 32.1769 43.2472 32.2636 43.0805 32.2636H41.9105C41.7305 32.2636 41.6372 32.1736 41.6305 31.9936C41.5705 30.8936 41.0205 29.8469 39.9805 28.8536C39.9406 28.8153 39.8917 28.7877 39.8383 28.7733C39.7849 28.7589 39.7287 28.7581 39.675 28.771C39.6212 28.784 39.5716 28.8102 39.5306 28.8474C39.4896 28.8845 39.4586 28.9313 39.4405 28.9836C39.0538 30.0569 39.2138 30.9369 39.9205 31.6236C40.1605 31.8502 40.2972 32.0502 40.3305 32.2236C40.3972 32.5769 40.2638 32.8169 39.9305 32.9436C39.8303 32.9815 39.7221 32.9932 39.6162 32.9777C39.5102 32.9621 39.4099 32.9198 39.3249 32.8548C39.2398 32.7897 39.1727 32.704 39.1299 32.6058C39.0872 32.5076 39.0702 32.4002 39.0805 32.2936C39.1805 31.1669 39.0005 30.0402 38.5405 28.9136C38.3738 28.5069 38.0805 28.3702 37.6605 28.5036L36.6905 28.8136C36.2305 28.9602 36.1572 29.2169 36.4705 29.5836C37.0005 30.2036 37.6405 30.6936 37.6305 31.6036C37.6038 33.1969 36.7238 34.0136 34.9905 34.0536C34.7014 34.0629 34.4144 34.0012 34.1547 33.874C33.8949 33.7467 33.6703 33.5577 33.5005 33.3236C32.7138 32.2369 32.6238 31.1902 33.2305 30.1836C33.4505 29.8169 33.3472 29.6236 32.9205 29.6036C32.4338 29.5836 32.0172 29.7169 31.6705 30.0036C31.4105 30.2236 31.3338 30.4969 31.4405 30.8236C32.1672 32.9836 32.2805 34.9802 31.7805 36.8136C29.5805 35.9002 28.0872 33.8402 27.3005 30.6336C29.1605 29.7802 31.2272 29.1402 33.5005 28.7136C36.5605 28.1336 38.6638 27.7136 39.8105 27.4536C43.0038 26.7202 46.2238 26.2836 49.4705 26.1436ZM34.8805 29.8936L33.4905 31.2536C33.3664 31.3759 33.2957 31.5423 33.2939 31.7165C33.292 31.8907 33.3591 32.0586 33.4805 32.1836L33.6305 32.3436C33.8453 32.5633 34.0856 32.7539 34.3376 32.9045C34.5895 33.0551 34.8483 33.1627 35.099 33.2212C35.3497 33.2797 35.5875 33.288 35.7988 33.2455C36.0101 33.203 36.1908 33.1106 36.3305 32.9736L36.5305 32.7736C36.8134 32.4986 36.9133 32.0589 36.8083 31.5509C36.7033 31.0429 36.402 30.508 35.9705 30.0636L35.8105 29.9036C35.6882 29.7795 35.5218 29.7088 35.3476 29.7069C35.1733 29.705 35.0054 29.7721 34.8805 29.8936Z" fill="#6FC673"/>
<path d="M51.5505 29.9736C54.5572 33.7069 58.5305 35.0936 63.4705 34.1336C66.0905 33.6336 68.9805 32.3536 71.5505 32.7936C77.5105 33.8036 79.4005 37.6936 81.0805 42.7736C82.5405 47.1736 80.9605 51.3036 76.2705 52.7236C72.8205 53.7536 68.4205 54.9236 66.3905 58.0336C64.9705 60.2002 64.2371 62.5336 64.1905 65.0336C64.1205 68.5136 65.9805 72.2936 67.1605 75.6836C68.1538 78.5569 67.6671 81.5902 65.7005 84.7836C62.7338 87.8036 59.4838 89.7469 55.9505 90.6136C48.2571 92.4936 43.4238 89.6069 41.4505 81.9536C40.5105 78.4536 39.3305 74.4936 40.8405 71.2836C42.1738 68.4436 44.2971 66.3569 47.2105 65.0236C49.4005 64.0236 51.8705 63.7436 53.9705 62.5636C56.6905 61.0236 58.7705 60.1636 60.0305 56.9536C61.2505 53.8402 61.4305 51.0369 60.5705 48.5436C60.0171 46.9236 59.4038 45.3169 58.7305 43.7236C58.0105 41.9902 57.0605 40.6069 55.8805 39.5736C52.2071 36.3202 48.1071 35.3869 43.5805 36.7736C40.8805 37.6002 38.6738 38.0569 36.9605 38.1436C35.1538 38.2369 33.4272 37.7936 31.7805 36.8136C32.2805 34.9802 32.1672 32.9836 31.4405 30.8236C31.3338 30.4969 31.4105 30.2236 31.6705 30.0036C32.0172 29.7169 32.4338 29.5836 32.9205 29.6036C33.3472 29.6236 33.4505 29.8169 33.2305 30.1836C32.6238 31.1902 32.7138 32.2369 33.5005 33.3236C33.6703 33.5577 33.8949 33.7467 34.1547 33.874C34.4144 34.0012 34.7014 34.0629 34.9905 34.0536C36.7238 34.0136 37.6038 33.1969 37.6305 31.6036C37.6405 30.6936 37.0005 30.2036 36.4705 29.5836C36.1572 29.2169 36.2305 28.9602 36.6905 28.8136L37.6605 28.5036C38.0805 28.3702 38.3738 28.5069 38.5405 28.9136C39.0005 30.0402 39.1805 31.1669 39.0805 32.2936C39.0702 32.4002 39.0872 32.5076 39.1299 32.6058C39.1727 32.704 39.2398 32.7897 39.3249 32.8548C39.4099 32.9198 39.5102 32.9621 39.6162 32.9777C39.7221 32.9932 39.8303 32.9815 39.9305 32.9436C40.2638 32.8169 40.3972 32.5769 40.3305 32.2236C40.2972 32.0502 40.1605 31.8502 39.9205 31.6236C39.2138 30.9369 39.0538 30.0569 39.4405 28.9836C39.4586 28.9313 39.4896 28.8845 39.5306 28.8474C39.5716 28.8102 39.6212 28.784 39.675 28.771C39.7287 28.7581 39.7849 28.7589 39.8383 28.7733C39.8917 28.7877 39.9406 28.8153 39.9805 28.8536C41.0205 29.8469 41.5705 30.8936 41.6305 31.9936C41.6372 32.1736 41.7305 32.2636 41.9105 32.2636H43.0805C43.2472 32.2636 43.3305 32.1769 43.3305 32.0036V29.3436C43.3305 28.4902 43.6138 28.3802 44.1805 29.0136C44.6672 29.5536 44.7838 30.2269 44.5305 31.0336C44.3638 31.5669 44.5572 31.8269 45.1105 31.8136C45.5038 31.8069 45.8638 31.6936 46.1905 31.4736C46.3212 31.3896 46.4694 31.3369 46.6238 31.3195C46.7782 31.3022 46.9344 31.3207 47.0805 31.3736C48.8672 32.0202 50.3572 31.5536 51.5505 29.9736Z" fill="#6FC673"/>
<path d="M223.4 32.8636L224.61 31.2036C227.54 28.8436 232.59 29.0236 233.62 33.1236C235.38 40.1436 222.44 41.6836 223.4 32.8636Z" fill="#33C173"/>
<path d="M277.23 47.8836L288.92 47.8936C289.147 47.8936 289.26 48.0035 289.26 48.2235L289.2 55.0936C289.194 55.4002 289.037 55.5569 288.73 55.5636L277.28 55.7836C277.144 55.7862 277.015 55.8421 276.919 55.9393C276.824 56.0366 276.77 56.1674 276.77 56.3036V62.6736C276.77 62.9802 276.927 63.1336 277.24 63.1336H291.43C291.757 63.1336 291.92 63.2936 291.92 63.6136L291.99 70.4636C291.997 70.8769 291.794 71.0602 291.38 71.0135C289.427 70.7935 287.447 70.7269 285.44 70.8136C282.434 70.9469 280.44 71.0036 279.46 70.9836C275.794 70.9102 272.024 70.8669 268.15 70.8536C267.777 70.8469 267.59 70.6569 267.59 70.2836L267.64 34.6836C267.64 34.1702 267.894 33.9136 268.4 33.9136L290.96 33.8236C291.187 33.8169 291.304 33.9302 291.31 34.1636L291.44 41.1336C291.44 41.2936 291.36 41.3736 291.2 41.3736L277.22 41.3836C277.096 41.3836 276.976 41.4341 276.888 41.5241C276.8 41.6142 276.75 41.7363 276.75 41.8636V47.4035C276.75 47.7235 276.91 47.8836 277.23 47.8836Z" fill="#33C173"/>
<path d="M121.8 70.3036C121.8 70.385 121.784 70.4656 121.753 70.5408C121.722 70.616 121.676 70.6844 121.619 70.742C121.561 70.7995 121.493 70.8452 121.418 70.8764C121.343 70.9075 121.262 70.9236 121.18 70.9236H113.24C113.159 70.9236 113.078 70.9075 113.003 70.8764C112.928 70.8452 112.86 70.7995 112.802 70.742C112.745 70.6844 112.699 70.616 112.668 70.5408C112.637 70.4656 112.62 70.385 112.62 70.3036V34.4236C112.62 34.2591 112.686 34.1014 112.802 33.9852C112.918 33.8689 113.076 33.8036 113.24 33.8036H121.18C121.345 33.8036 121.503 33.8689 121.619 33.9852C121.735 34.1014 121.8 34.2591 121.8 34.4236V70.3036Z" fill="#33C173"/>
<path d="M138.26 45.2836C140.57 43.3936 143.02 42.1836 146.05 41.8836C151.59 41.3336 155.18 45.4436 155.39 50.6736C155.624 56.4136 155.684 63.0302 155.57 70.5236C155.564 70.7636 155.44 70.8836 155.2 70.8836L146.9 70.8736C146.789 70.8736 146.682 70.8304 146.604 70.7535C146.525 70.6766 146.48 70.5723 146.48 70.4636C146.467 65.5902 146.457 59.8902 146.45 53.3636C146.45 50.5369 145.097 49.3402 142.39 49.7736C142.017 49.8336 141.734 49.8802 141.54 49.9136C139.527 50.2336 138.53 51.4136 138.55 53.4536L138.72 70.1236C138.727 70.6369 138.474 70.8902 137.96 70.8836L130.19 70.8536C129.994 70.8536 129.806 70.7766 129.667 70.6397C129.528 70.5028 129.45 70.3172 129.45 70.1236L129.4 43.5336C129.4 43.3638 129.469 43.201 129.591 43.081C129.713 42.961 129.878 42.8936 130.05 42.8936L136.28 42.8836C136.834 42.8836 137.144 43.1602 137.21 43.7136L137.36 44.9136C137.44 45.5802 137.74 45.7036 138.26 45.2836Z" fill="#33C173"/>
<path d="M204.462 72.0517C202.604 72.0225 200.771 71.6015 199.066 70.8128C197.362 70.0241 195.819 68.883 194.528 67.4548C193.236 66.0266 192.22 64.3392 191.538 62.489C190.856 60.6387 190.521 58.6619 190.552 56.6713C190.615 52.6511 192.167 48.819 194.865 46.018C197.562 43.217 201.186 41.6765 204.939 41.7355C206.797 41.7646 208.63 42.1856 210.335 42.9743C212.039 43.7631 213.582 44.9041 214.873 46.3323C216.165 47.7605 217.181 49.4479 217.863 51.2982C218.545 53.1484 218.88 55.1253 218.849 57.1159C218.786 61.136 217.234 64.9681 214.536 67.7691C211.838 70.5701 208.215 72.1106 204.462 72.0517ZM204.693 64.8136C205.314 64.8157 205.93 64.6138 206.505 64.2193C207.08 63.8248 207.604 63.2454 208.046 62.5143C208.487 61.7832 208.839 60.9146 209.08 59.9582C209.321 59.0017 209.447 57.9762 209.45 56.9401C209.454 55.9039 209.335 54.8775 209.101 53.9194C208.867 52.9613 208.521 52.0903 208.085 51.3561C207.648 50.6219 207.128 50.0389 206.556 49.6404C205.984 49.2419 205.369 49.0357 204.748 49.0336C204.127 49.0314 203.511 49.2333 202.936 49.6278C202.361 50.0223 201.837 50.6017 201.395 51.3328C200.954 52.0639 200.602 52.9325 200.361 53.8889C200.12 54.8454 199.994 55.8709 199.99 56.9071C199.987 57.9432 200.106 58.9696 200.34 59.9277C200.574 60.8858 200.92 61.7568 201.356 62.491C201.793 63.2252 202.312 63.8082 202.885 64.2067C203.457 64.6052 204.072 64.8114 204.693 64.8136Z" fill="#33C173"/>
<path d="M255.99 41.8936C256.87 41.9002 258.81 42.7702 261.81 44.5036C261.964 44.5902 261.991 44.7069 261.891 44.8536C260.597 46.7069 259.25 48.5802 257.85 50.4736C257.744 50.6202 257.617 50.6436 257.47 50.5436C253.897 48.2169 251.027 48.7536 248.86 52.1536C247.707 53.9602 247.45 56.3602 248.09 59.3536C249.25 64.7636 254.07 66.0936 258.35 62.7636C258.524 62.6302 258.664 62.6569 258.771 62.8436L262.051 68.2836C262.09 68.3503 262.105 68.4288 262.092 68.5042C262.079 68.5797 262.04 68.647 261.98 68.6936C256.02 73.5236 246.69 72.9636 241.82 67.2536C239.847 64.9402 238.687 62.0702 238.34 58.6436C237.994 55.2169 238.6 52.0336 240.16 49.0936C241.88 45.8669 244.824 43.6236 248.99 42.3636C251.184 41.8102 253.517 41.6536 255.99 41.8936Z" fill="#33C173"/>
<path d="M318.35 43.9636L320.73 47.1436C322.52 52.1136 321.941 56.8336 322.201 62.0236C321.994 62.8102 322.02 63.7402 322.28 64.8136L322.13 70.1736C322.117 70.6002 321.897 70.8202 321.47 70.8336L315.121 70.9836C315.027 70.9865 314.935 70.97 314.848 70.9351C314.762 70.9002 314.684 70.8477 314.619 70.7809C314.554 70.714 314.504 70.6344 314.471 70.5471C314.439 70.4597 314.425 70.3666 314.431 70.2736C314.451 69.8602 314.387 69.4736 314.241 69.1136C314.101 68.7602 313.874 68.6969 313.56 68.9236C308.13 72.9836 299.65 73.8236 297.57 65.7636C295.15 56.3636 304.54 53.3936 311.75 52.7036C312.864 52.5969 313.124 52.0702 312.53 51.1236L312.13 50.4936C311.824 50.0085 311.394 49.6138 310.884 49.3502C310.374 49.0865 309.804 48.9634 309.23 48.9936C306.55 49.1202 304.024 49.9569 301.651 51.5036C301.613 51.5274 301.572 51.5435 301.528 51.5509C301.485 51.5582 301.441 51.5567 301.398 51.5464C301.356 51.536 301.317 51.5171 301.283 51.4908C301.249 51.4645 301.221 51.4314 301.201 51.3936L298.201 45.8636C298.134 45.7436 298.157 45.6502 298.271 45.5836C305.411 41.1502 312.104 40.6102 318.35 43.9636ZM312.361 58.2736C310.021 58.6736 306.271 59.4336 305.891 62.2836C305.815 62.8542 305.963 63.4321 306.303 63.8976C306.644 64.3631 307.152 64.6803 307.72 64.7836C309.447 65.0902 311.05 64.5402 312.53 63.1336C312.817 62.8602 312.961 62.5302 312.961 62.1436V58.7736C312.961 58.3736 312.761 58.2069 312.361 58.2736Z" fill="#33C173"/>
<path d="M345.27 43.0436L348.65 44.9536C349.137 45.2269 349.214 45.5869 348.88 46.0336L345.64 50.3536C345.327 50.7802 344.95 50.8469 344.51 50.5536C342.31 49.0736 340.01 48.0936 337.42 48.8636C337.206 48.928 337.007 49.0383 336.839 49.1869C336.671 49.3355 336.537 49.5189 336.447 49.7242C336.356 49.9296 336.312 50.1522 336.316 50.3765C336.32 50.6008 336.373 50.8216 336.47 51.0236C336.81 51.7369 337.4 52.2369 338.24 52.5236C340.4 53.2569 342.57 54.1669 344.75 55.2536C349.22 57.4736 350.75 62.0836 348.48 66.4636C346.94 69.4502 344.287 71.2069 340.52 71.7336C334.947 72.5069 330.244 71.1536 326.41 67.6736L329.97 63.0136C330.19 62.7336 330.47 62.6436 330.81 62.7436L331.73 63.0036C334.144 64.7969 336.774 65.4469 339.62 64.9536C339.947 64.8936 340.19 64.7202 340.35 64.4336C341.117 63.0336 340.784 62.0002 339.35 61.3336C337.377 60.4136 335.504 59.5169 333.73 58.6436C327.164 55.3902 326.02 50.7036 330.3 44.5836C335.174 41.4569 340.164 40.9436 345.27 43.0436Z" fill="#33C173"/>
<path d="M363.22 59.8536C361.847 59.8536 361.514 60.4436 362.22 61.6236L362.72 62.4736C363.07 63.0558 363.537 63.5579 364.091 63.9472C364.646 64.3366 365.276 64.6045 365.94 64.7336C368.774 65.2936 371.4 64.8969 373.82 63.5436C374.001 63.4431 374.214 63.4182 374.412 63.4744C374.611 63.5307 374.779 63.6634 374.88 63.8436L377.26 68.0836C377.514 68.5302 377.417 68.8836 376.97 69.1436C372.08 71.9836 365.38 73.1336 360.24 70.3436C354.787 67.3969 352.29 62.5302 352.75 55.7436C353.117 50.2569 355.45 46.2369 359.75 43.6836C365.39 40.3336 373.13 41.3636 376.59 47.4436C378.637 51.0436 379.184 54.9769 378.23 59.2436C378.194 59.408 378.102 59.5551 377.969 59.6605C377.836 59.766 377.671 59.8235 377.5 59.8236L363.22 59.8536ZM361.82 53.9036L370.68 53.7436C370.744 53.7436 370.805 53.7183 370.85 53.6733C370.895 53.6283 370.92 53.5672 370.92 53.5036V53.3936C370.899 52.1554 370.402 50.9763 369.539 50.1155C368.677 49.2548 367.519 48.7829 366.32 48.8036H366.02C365.427 48.8136 364.841 48.9445 364.296 49.1887C363.752 49.4329 363.259 49.7857 362.847 50.2268C362.434 50.6679 362.11 51.1888 361.893 51.7596C361.676 52.3304 361.57 52.94 361.58 53.5536V53.6636C361.58 53.7272 361.606 53.7883 361.651 53.8333C361.696 53.8783 361.757 53.9036 361.82 53.9036Z" fill="#33C173"/>
<path d="M160.56 45.8236C160.567 45.2169 160.414 44.6936 160.1 44.2536C159.747 43.9002 159.604 43.6136 159.67 43.3936C159.718 43.2155 159.827 43.0595 159.979 42.952C160.13 42.8445 160.314 42.792 160.5 42.8036C163.194 42.9836 165.784 42.9636 168.27 42.7436C168.637 42.7169 168.867 42.8802 168.96 43.2336L174.14 63.3436C174.207 63.5836 174.274 63.5836 174.34 63.3436L179.83 43.1136C179.87 42.9602 179.974 42.8836 180.14 42.8836L188.45 42.9036C188.657 42.9036 188.73 43.0002 188.67 43.1936L179.75 70.3336C179.63 70.7002 179.377 70.8836 178.99 70.8836H169.49C169.15 70.8836 168.927 70.7236 168.82 70.4036L160.56 45.8236Z" fill="#33C173"/>
<path d="M232.66 70.8836H224.44C224.107 70.8836 223.94 70.7169 223.94 70.3836L223.97 43.6136C223.977 43.1202 224.227 42.8769 224.72 42.8836L232.58 42.9236C232.96 42.9236 233.15 43.1169 233.15 43.5036L233.11 70.4236C233.11 70.7302 232.96 70.8836 232.66 70.8836Z" fill="#33C173"/>
<path d="M38 31.5C38 32.8807 36.8807 34 35.5 34C34.1193 34 33 32.8807 33 31.5C33 30.1193 34.1193 29 35.5 29C36.8807 29 38 30.1193 38 31.5Z" fill="#6FC673"/>
</svg>
