<?xml version="1.0" encoding="UTF-8" standalone="no"?>
<!DOCTYPE svg PUBLIC "-//W3C//DTD SVG 1.1//EN" "http://www.w3.org/Graphics/SVG/1.1/DTD/svg11.dtd">
<svg xmlns="http://www.w3.org/2000/svg" version="1.1" viewBox="0.00 0.00 320.00 320.00" width="320.00" height="320.00">
<g stroke-width="2.00" fill="none" stroke-linecap="butt">
<path stroke="#4d545f" stroke-opacity="0.533" vector-effect="non-scaling-stroke" d="
  M 227.97 63.35
  L 226.13 56.70"
/>
<path stroke="#4d545f" stroke-opacity="0.533" vector-effect="non-scaling-stroke" d="
  M 224.94 121.71
  L 222.37 130.51"
/>
<path stroke="#4d545f" stroke-opacity="0.533" vector-effect="non-scaling-stroke" d="
  M 218.58 139.85
  L 212.10 152.05"
/>
<path stroke="#4d545f" stroke-opacity="0.533" vector-effect="non-scaling-stroke" d="
  M 189.45 174.10
  L 180.71 177.55"
/>
<path stroke="#4d545f" stroke-opacity="0.533" vector-effect="non-scaling-stroke" d="
  M 171.69 179.79
  Q 169.27 179.57 167.70 179.98"
/>
<path stroke="#4d545f" stroke-opacity="0.533" vector-effect="non-scaling-stroke" d="
  M 158.99 179.72
  L 154.17 178.82"
/>
<path stroke="#4d545f" stroke-opacity="0.533" vector-effect="non-scaling-stroke" d="
  M 149.20 177.48
  L 145.17 176.00"
/>
<path stroke="#4d545f" stroke-opacity="0.533" vector-effect="non-scaling-stroke" d="
  M 141.99 174.60
  L 137.14 171.71"
/>
<path stroke="#4d545f" stroke-opacity="0.533" vector-effect="non-scaling-stroke" d="
  M 133.18 168.88
  L 130.38 166.62"
/>
<path stroke="#4d545f" stroke-opacity="0.533" vector-effect="non-scaling-stroke" d="
  M 127.55 164.02
  L 124.20 160.39"
/>
<path stroke="#4d545f" stroke-opacity="0.533" vector-effect="non-scaling-stroke" d="
  M 121.62 157.27
  L 119.36 154.21"
/>
<path stroke="#4d545f" stroke-opacity="0.533" vector-effect="non-scaling-stroke" d="
  M 115.92 148.75
  L 114.52 146.09"
/>
<path stroke="#4d545f" stroke-opacity="0.533" vector-effect="non-scaling-stroke" d="
  M 112.28 141.76
  L 110.49 137.90"
/>
<path stroke="#4d545f" stroke-opacity="0.533" vector-effect="non-scaling-stroke" d="
  M 108.71 133.25
  L 106.84 127.76"
/>
<path stroke="#4d545f" stroke-opacity="0.533" vector-effect="non-scaling-stroke" d="
  M 105.30 122.55
  L 104.47 118.96"
/>
<path stroke="#4d545f" stroke-opacity="0.533" vector-effect="non-scaling-stroke" d="
  M 103.04 112.81
  L 102.21 108.77"
/>
<path stroke="#4d545f" stroke-opacity="0.533" vector-effect="non-scaling-stroke" d="
  M 101.25 102.30
  L 100.69 97.55"
/>
<path stroke="#4d545f" stroke-opacity="0.533" vector-effect="non-scaling-stroke" d="
  M 99.97 90.36
  L 99.76 86.70"
/>
<path stroke="#4d545f" stroke-opacity="0.533" vector-effect="non-scaling-stroke" d="
  M 99.91 78.54
  L 100.14 73.28"
/>
<path stroke="#4d545f" stroke-opacity="0.533" vector-effect="non-scaling-stroke" d="
  M 101.27 66.20
  L 103.16 58.93"
/>
<path stroke="#4d545f" stroke-opacity="0.533" vector-effect="non-scaling-stroke" d="
  M 230.26 83.50
  L 230.13 78.43"
/>
<path stroke="#4d545f" stroke-opacity="0.533" vector-effect="non-scaling-stroke" d="
  M 78.79 200.31
  L 69.40 204.60"
/>
<path stroke="#4d545f" stroke-opacity="0.533" vector-effect="non-scaling-stroke" d="
  M 129.31 185.10
  L 125.38 185.71"
/>
<path stroke="#4d545f" stroke-opacity="0.533" vector-effect="non-scaling-stroke" d="
  M 117.36 187.61
  L 109.22 189.77"
/>
<path stroke="#4d545f" stroke-opacity="0.533" vector-effect="non-scaling-stroke" d="
  M 224.47 52.46
  L 222.89 49.15"
/>
<path stroke="#4d545f" stroke-opacity="0.533" vector-effect="non-scaling-stroke" d="
  M 227.27 111.84
  L 228.27 105.58"
/>
<path stroke="#4d545f" stroke-opacity="0.533" vector-effect="non-scaling-stroke" d="
  M 144.54 208.55
  L 140.44 203.08"
/>
<path stroke="#4d545f" stroke-opacity="0.533" vector-effect="non-scaling-stroke" d="
  M 102.33 191.80
  L 90.93 195.58"
/>
<path stroke="#4d545f" stroke-opacity="0.533" vector-effect="non-scaling-stroke" d="
  M 123.17 31.04
  Q 115.50 36.42 110.16 44.06"
/>
<path stroke="#4d545f" stroke-opacity="0.533" vector-effect="non-scaling-stroke" d="
  M 182.55 21.49
  L 176.69 20.64"
/>
<path stroke="#4d545f" stroke-opacity="0.533" vector-effect="non-scaling-stroke" d="
  M 170.52 20.16
  L 167.12 19.97"
/>
<path stroke="#4d545f" stroke-opacity="0.533" vector-effect="non-scaling-stroke" d="
  M 145.70 21.81
  L 136.42 24.37"
/>
<path stroke="#4d545f" stroke-opacity="0.533" vector-effect="non-scaling-stroke" d="
  M 220.18 44.57
  L 217.53 40.92"
/>
<path stroke="#4d545f" stroke-opacity="0.533" vector-effect="non-scaling-stroke" d="
  M 229.68 72.82
  L 228.76 66.89"
/>
<path stroke="#4d545f" stroke-opacity="0.533" vector-effect="non-scaling-stroke" d="
  M 134.63 194.69
  L 132.28 190.80"
/>
<path stroke="#4d545f" stroke-opacity="0.533" vector-effect="non-scaling-stroke" d="
  M 215.52 38.54
  L 212.63 35.68"
/>
<path stroke="#4d545f" stroke-opacity="0.533" vector-effect="non-scaling-stroke" d="
  M 208.32 32.08
  L 205.80 30.34"
/>
<path stroke="#4d545f" stroke-opacity="0.533" vector-effect="non-scaling-stroke" d="
  M 54.36 213.30
  Q 43.32 220.58 35.81 231.03"
/>
<path stroke="#4d545f" stroke-opacity="0.533" vector-effect="non-scaling-stroke" d="
  M 139.02 201.27
  L 136.66 197.91"
/>
<path stroke="#4d545f" stroke-opacity="0.533" vector-effect="non-scaling-stroke" d="
  M 150.26 215.28
  L 147.35 211.96"
/>
<path stroke="#4d545f" stroke-opacity="0.533" vector-effect="non-scaling-stroke" d="
  M 194.18 24.51
  L 188.34 22.77"
/>
<path stroke="#4d545f" stroke-opacity="0.533" vector-effect="non-scaling-stroke" d="
  M 229.49 96.83
  L 229.81 92.92"
/>
<path stroke="#4d545f" stroke-opacity="0.533" vector-effect="non-scaling-stroke" d="
  M 200.81 27.47
  L 197.50 25.94"
/>
<path stroke="#4d545f" stroke-opacity="0.533" vector-effect="non-scaling-stroke" d="
  M 159.46 224.79
  L 162.58 227.74"
/>
<path stroke="#4d545f" stroke-opacity="0.533" vector-effect="non-scaling-stroke" d="
  M 191.37 200.88
  L 199.20 188.23"
/>
<path stroke="#4d545f" stroke-opacity="0.533" vector-effect="non-scaling-stroke" d="
  M 287.15 222.52
  L 289.72 225.26"
/>
<path stroke="#4d545f" stroke-opacity="0.533" vector-effect="non-scaling-stroke" d="
  M 292.69 228.97
  L 294.65 231.94"
/>
<path stroke="#4d545f" stroke-opacity="0.533" vector-effect="non-scaling-stroke" d="
  M 297.40 237.20
  L 298.44 240.16"
/>
<path stroke="#4d545f" stroke-opacity="0.533" vector-effect="non-scaling-stroke" d="
  M 299.91 247.99
  L 300.04 250.30"
/>
<path stroke="#4d545f" stroke-opacity="0.533" vector-effect="non-scaling-stroke" d="
  M 300.06 261.07
  Q 299.94 261.39 300.02 262.04"
/>
<path stroke="#4d545f" stroke-opacity="0.533" vector-effect="non-scaling-stroke" d="
  M 299.97 272.43
  L 299.01 278.76"
/>
<path stroke="#4d545f" stroke-opacity="0.533" vector-effect="non-scaling-stroke" d="
  M 278.81 297.56
  L 271.40 299.26"
/>
<path stroke="#4d545f" stroke-opacity="0.533" vector-effect="non-scaling-stroke" d="
  M 263.46 300.13
  L 259.78 300.07"
/>
<path stroke="#4d545f" stroke-opacity="0.533" vector-effect="non-scaling-stroke" d="
  M 251.03 300.10
  L 247.54 300.04"
/>
<path stroke="#4d545f" stroke-opacity="0.533" vector-effect="non-scaling-stroke" d="
  M 237.58 300.04
  L 234.79 300.05"
/>
<path stroke="#4d545f" stroke-opacity="0.533" vector-effect="non-scaling-stroke" d="
  M 225.11 300.05
  L 222.27 300.06"
/>
<path stroke="#4d545f" stroke-opacity="0.533" vector-effect="non-scaling-stroke" d="
  M 213.17 300.14
  L 209.99 300.05"
/>
<path stroke="#4d545f" stroke-opacity="0.533" vector-effect="non-scaling-stroke" d="
  M 200.36 300.05
  L 197.75 300.06"
/>
<path stroke="#4d545f" stroke-opacity="0.533" vector-effect="non-scaling-stroke" d="
  M 188.05 300.16
  L 184.55 300.05"
/>
<path stroke="#4d545f" stroke-opacity="0.533" vector-effect="non-scaling-stroke" d="
  M 174.77 300.04
  L 172.54 300.05"
/>
<path stroke="#4d545f" stroke-opacity="0.533" vector-effect="non-scaling-stroke" d="
  M 163.15 300.13
  L 160.02 300.04"
/>
<path stroke="#4d545f" stroke-opacity="0.533" vector-effect="non-scaling-stroke" d="
  M 150.30 300.04
  L 147.75 300.06"
/>
<path stroke="#4d545f" stroke-opacity="0.533" vector-effect="non-scaling-stroke" d="
  M 138.48 300.15
  L 134.57 300.04"
/>
<path stroke="#4d545f" stroke-opacity="0.533" vector-effect="non-scaling-stroke" d="
  M 124.84 300.05
  L 122.58 300.06"
/>
<path stroke="#4d545f" stroke-opacity="0.533" vector-effect="non-scaling-stroke" d="
  M 113.18 300.14
  L 109.95 300.04"
/>
<path stroke="#4d545f" stroke-opacity="0.533" vector-effect="non-scaling-stroke" d="
  M 100.35 300.05
  L 97.55 300.07"
/>
<path stroke="#4d545f" stroke-opacity="0.533" vector-effect="non-scaling-stroke" d="
  M 88.52 300.17
  L 85.01 300.04"
/>
<path stroke="#4d545f" stroke-opacity="0.533" vector-effect="non-scaling-stroke" d="
  M 75.37 300.05
  L 72.54 300.04"
/>
<path stroke="#4d545f" stroke-opacity="0.533" vector-effect="non-scaling-stroke" d="
  M 63.82 299.85
  L 57.70 299.10"
/>
<path stroke="#4d545f" stroke-opacity="0.533" vector-effect="non-scaling-stroke" d="
  M 53.73 298.25
  L 48.67 296.76"
/>
<path stroke="#4d545f" stroke-opacity="0.533" vector-effect="non-scaling-stroke" d="
  M 44.35 294.82
  L 40.78 292.70"
/>
<path stroke="#4d545f" stroke-opacity="0.533" vector-effect="non-scaling-stroke" d="
  M 38.86 291.30
  L 35.65 287.87"
/>
<path stroke="#4d545f" stroke-opacity="0.533" vector-effect="non-scaling-stroke" d="
  M 33.23 284.27
  L 31.32 279.70"
/>
<path stroke="#4d545f" stroke-opacity="0.533" vector-effect="non-scaling-stroke" d="
  M 30.08 272.72
  L 29.78 268.88"
/>
<path stroke="#4d545f" stroke-opacity="0.533" vector-effect="non-scaling-stroke" d="
  M 29.92 259.70
  L 29.97 257.70"
/>
<path stroke="#4d545f" stroke-opacity="0.533" vector-effect="non-scaling-stroke" d="
  M 30.02 247.98
  L 30.65 243.00"
/>
<path stroke="#4d545f" stroke-opacity="0.533" vector-effect="non-scaling-stroke" d="
  M 215.37 188.42
  L 210.02 187.07"
/>
<path stroke="#4d545f" stroke-opacity="0.533" vector-effect="non-scaling-stroke" d="
  M 155.98 221.37
  L 153.41 218.71"
/>
<path stroke="#4d545f" stroke-opacity="0.533" vector-effect="non-scaling-stroke" d="
  M 235.07 194.30
  L 230.62 192.81"
/>
<path stroke="#4d545f" stroke-opacity="0.533" vector-effect="non-scaling-stroke" d="
  M 277.11 214.29
  L 273.50 211.82"
/>
<path stroke="#4d545f" stroke-opacity="0.533" vector-effect="non-scaling-stroke" d="
  M 269.27 209.25
  L 266.07 207.42"
/>
<path stroke="#4d545f" stroke-opacity="0.533" vector-effect="non-scaling-stroke" d="
  M 252.80 201.00
  L 247.64 198.82"
/>
<path stroke="#4d545f" stroke-opacity="0.533" vector-effect="non-scaling-stroke" d="
  M 260.46 204.55
  L 257.88 203.34"
/>
<path stroke="#4d545f" stroke-opacity="0.533" vector-effect="non-scaling-stroke" d="
  M 225.34 191.21
  L 221.52 190.04"
/>
<path stroke="#4d545f" stroke-opacity="0.533" vector-effect="non-scaling-stroke" d="
  M 244.13 197.48
  L 240.02 195.99"
/>
<path stroke="#4d545f" stroke-opacity="0.533" vector-effect="non-scaling-stroke" d="
  M 283.88 219.51
  L 281.01 217.22"
/>
<path stroke="#4d545f" stroke-opacity="0.533" vector-effect="non-scaling-stroke" d="
  M 205.81 186.04
  Q 203.73 186.02 201.35 184.80"
/>
</g>
<path fill="#040404" fill-opacity="0.067" d="
  M 227.97 63.35
  L 226.13 56.70
  Q 227.06 56.96 227.29 58.08
  A 0.49 0.49 0.0 0 0 228.14 58.30
  Q 229.42 56.83 230.74 55.48
  Q 256.68 29.18 278.75 7.35
  Q 280.02 6.09 281.47 5.15
  Q 283.02 4.15 284.38 2.87
  Q 284.85 2.43 285.00 3.05
  Q 285.18 3.79 284.73 4.23
  Q 261.08 27.82 237.46 51.44
  Q 237.41 51.48 233.26 55.26
  Q 228.94 59.18 227.97 63.35
  Z"
/>
<path fill="#040404" fill-opacity="0.067" d="
  M 194.18 24.51
  L 188.34 22.77
  Q 196.92 14.42 205.44 5.90
  Q 206.23 5.10 207.20 4.52
  Q 208.16 3.94 208.95 3.06
  Q 209.43 2.52 209.63 3.22
  Q 209.82 3.92 209.32 4.45
  Q 202.30 11.91 192.32 21.47
  Q 191.67 22.10 192.15 22.88
  Q 192.63 23.67 194.18 24.51
  Z"
/>
<path fill="#040404" fill-opacity="0.067" d="
  M 3.64 8.29
  Q 5.53 4.91 9.29 3.11
  A 0.46 0.45 -17.6 0 1 9.94 3.44
  Q 9.99 3.73 9.79 3.96
  Q 6.86 7.32 3.84 9.73
  A 0.56 0.56 0.0 0 1 2.99 9.53
  Q 2.75 9.05 3.25 8.71
  A 1.31 1.20 -89.6 0 0 3.64 8.29
  Z"
/>
<path fill="#040404" fill-opacity="0.067" d="
  M 93.38 5.21
  Q 94.27 4.43 95.38 4.17
  A 1.22 1.21 9.6 0 0 96.15 3.63
  Q 96.41 3.22 96.83 3.12
  Q 97.71 2.91 97.22 3.67
  Q 95.75 5.96 93.83 7.86
  Q 46.58 54.74 9.47 92.17
  Q 7.24 94.42 5.08 96.11
  A 0.72 0.70 42.9 0 1 4.25 96.13
  Q 3.89 95.89 3.94 95.49
  Q 4.12 94.25 4.82 93.55
  Q 49.10 49.25 90.10 8.25
  Q 91.51 6.84 93.38 5.21
  Z"
/>
<path fill="#040404" fill-opacity="0.067" d="
  M 35.53 87.78
  Q 71.42 51.82 108.61 14.67
  Q 114.02 9.26 118.52 5.34
  Q 119.88 4.16 121.54 3.41
  Q 122.97 2.76 122.02 4.01
  Q 119.65 7.14 116.68 10.10
  Q 60.80 65.83 5.59 120.99
  Q 4.66 121.92 3.51 122.46
  Q 1.64 123.34 2.74 121.59
  Q 3.96 119.63 6.02 117.54
  Q 19.36 103.98 35.53 87.78
  Z"
/>
<path fill="#040404" fill-opacity="0.067" d="
  M 81.67 5.04
  Q 82.87 3.98 84.11 3.46
  Q 84.77 3.19 84.56 3.87
  Q 84.35 4.59 83.82 5.12
  Q 45.77 43.13 7.86 81.11
  Q 6.00 82.97 4.10 84.53
  Q 2.75 85.64 3.21 83.95
  Q 3.61 82.49 4.68 81.40
  Q 42.30 43.68 79.55 6.59
  Q 80.21 5.94 81.03 5.50
  Q 81.36 5.31 81.67 5.04
  Z"
/>
<path fill="#040404" fill-opacity="0.067" d="
  M 170.52 20.16
  L 167.12 19.97
  Q 170.62 14.51 175.80 10.95
  Q 177.08 10.07 177.89 8.75
  Q 180.31 4.81 183.58 3.86
  Q 185.64 3.27 184.11 4.77
  Q 177.96 10.78 171.86 16.96
  Q 171.80 17.02 170.94 17.81
  Q 169.40 19.21 170.52 20.16
  Z"
/>
<path fill="#040404" fill-opacity="0.067" d="
  M 229.68 72.82
  L 228.76 66.89
  L 230.08 67.50
  Q 230.58 67.73 230.97 67.34
  Q 260.23 38.14 289.52 8.98
  Q 291.71 6.80 293.67 5.08
  C 294.38 4.46 295.39 4.37 296.03 3.62
  Q 296.67 2.87 296.93 3.82
  Q 296.97 3.97 296.93 4.12
  Q 296.87 4.39 296.68 4.60
  Q 291.28 10.49 285.61 16.11
  Q 258.76 42.69 232.23 69.48
  Q 231.99 69.72 231.62 69.70
  Q 231.15 69.67 230.94 70.11
  L 229.68 72.82
  Z"
/>
<path fill="#040404" fill-opacity="0.067" d="
  M 230.26 83.50
  L 230.13 78.43
  Q 231.92 79.94 234.31 77.20
  Q 236.68 74.47 236.78 74.38
  Q 260.60 50.66 284.04 27.04
  Q 294.43 16.56 305.13 6.14
  C 305.94 5.35 307.08 5.08 307.86 3.99
  Q 308.15 3.59 308.57 3.53
  Q 310.72 3.23 309.18 4.76
  Q 270.20 43.84 234.27 79.47
  Q 233.55 80.18 232.59 80.91
  Q 232.20 81.21 232.02 81.67
  Q 231.54 82.89 230.26 83.50
  Z"
/>
<path fill="#040404" fill-opacity="0.067" d="
  M 18.19 5.81
  Q 19.40 4.47 21.27 3.49
  Q 21.46 3.39 21.66 3.48
  Q 21.81 3.55 21.96 3.59
  A 0.36 0.36 0.0 0 1 22.13 4.19
  Q 13.98 12.98 4.92 21.63
  Q 4.38 22.15 3.63 22.13
  A 0.57 0.57 0.0 0 1 3.20 21.21
  Q 4.17 19.93 5.14 18.59
  Q 6.09 17.28 7.28 16.11
  Q 12.55 10.92 17.58 6.00
  Q 17.73 5.85 17.94 5.87
  Q 17.99 5.88 18.04 5.88
  Q 18.13 5.87 18.19 5.81
  Z"
/>
<path fill="#040404" fill-opacity="0.067" d="
  M 61.66 12.06
  Q 65.16 8.38 68.70 5.33
  C 69.69 4.47 70.80 4.42 71.80 3.60
  A 0.21 0.21 0.0 0 1 72.13 3.80
  Q 72.11 3.95 72.12 4.09
  Q 72.13 4.18 72.07 4.24
  Q 70.88 5.36 69.78 6.63
  Q 68.72 7.87 67.53 8.98
  Q 65.23 11.12 63.02 13.43
  Q 60.82 15.72 58.68 17.85
  Q 37.50 38.99 12.07 64.69
  Q 8.28 68.52 5.34 71.10
  Q 4.93 71.46 4.38 71.60
  Q 3.09 71.94 3.72 70.76
  Q 4.94 68.46 6.38 67.03
  Q 33.47 40.05 60.70 12.73
  Q 60.85 12.57 61.05 12.49
  Q 61.40 12.33 61.66 12.06
  Z"
/>
<path fill="#040404" fill-opacity="0.067" d="
  M 109.85 4.08
  L 4.19 109.69
  Q 3.17 110.72 3.28 109.27
  Q 3.41 107.70 4.87 106.25
  Q 42.36 68.93 74.80 36.30
  Q 89.19 21.84 104.10 7.03
  Q 105.01 6.13 106.06 5.39
  Q 107.05 4.71 107.97 3.94
  Q 108.32 3.64 108.77 3.54
  L 109.48 3.39
  A 0.41 0.41 0.0 0 1 109.85 4.08
  Z"
/>
<path fill="#040404" fill-opacity="0.067" d="
  M 200.81 27.47
  L 197.50 25.94
  Q 206.98 16.36 216.68 7.00
  Q 217.77 5.95 218.93 5.14
  Q 220.17 4.27 221.56 3.51
  A 0.33 0.32 -6.5 0 1 222.03 3.88
  Q 221.92 4.28 221.65 4.58
  Q 213.24 14.05 200.90 25.46
  Q 200.56 25.78 200.54 26.25
  Q 200.53 26.81 200.81 27.47
  Z"
/>
<path fill="#040404" fill-opacity="0.067" d="
  M 208.32 32.08
  L 205.80 30.34
  L 227.49 8.96
  Q 227.50 8.95 227.51 8.94
  Q 230.84 6.08 233.79 3.78
  Q 234.36 3.34 234.31 4.05
  Q 234.27 4.58 233.74 5.12
  Q 221.60 17.29 209.96 28.84
  Q 209.61 29.19 209.15 29.37
  Q 207.79 29.92 208.32 32.08
  Z"
/>
<path fill="#040404" fill-opacity="0.067" d="
  M 224.47 52.46
  L 222.89 49.15
  Q 224.56 49.72 225.34 48.61
  Q 225.87 47.85 226.49 47.22
  Q 243.36 29.98 260.18 13.41
  Q 264.24 9.41 268.77 5.16
  C 269.55 4.43 270.78 4.27 271.70 3.71
  Q 272.22 3.39 272.07 3.98
  Q 271.96 4.45 271.65 4.77
  Q 258.15 18.49 231.97 44.72
  Q 231.94 44.75 228.43 48.00
  Q 226.21 50.06 224.47 52.46
  Z"
/>
<path fill="#040404" fill-opacity="0.067" d="
  M 31.60 5.08
  Q 31.58 4.94 31.70 4.85
  Q 31.77 4.80 31.81 4.87
  Q 31.89 5.03 32.03 5.13
  Q 32.15 5.23 32.26 5.11
  Q 32.90 4.42 33.75 3.94
  Q 34.65 3.43 34.02 4.25
  Q 33.67 4.71 33.37 5.25
  Q 33.10 5.71 32.74 6.08
  Q 19.81 19.23 6.57 32.28
  Q 5.42 33.41 4.15 34.52
  Q 2.91 35.61 3.19 33.98
  Q 3.29 33.41 3.58 32.80
  Q 3.84 32.25 4.26 31.82
  Q 14.14 21.66 24.66 11.53
  Q 26.28 9.97 28.26 8.59
  Q 30.04 7.35 31.48 5.48
  Q 31.62 5.30 31.60 5.08
  Z"
/>
<path fill="#040404" fill-opacity="0.067" d="
  M 43.69 17.61
  Q 43.78 17.43 43.92 17.30
  Q 47.30 14.07 50.97 11.17
  Q 51.18 11.00 51.33 10.73
  Q 51.42 10.57 51.52 10.41
  Q 51.61 10.28 51.76 10.19
  Q 53.28 9.33 54.66 7.52
  Q 56.21 5.50 58.50 4.11
  Q 59.02 3.79 58.83 4.37
  Q 58.54 5.24 57.90 5.81
  Q 54.54 8.75 51.93 11.62
  Q 49.04 14.81 46.09 17.77
  Q 24.83 39.14 4.41 59.50
  A 0.73 0.72 55.0 0 1 3.24 59.29
  Q 3.16 59.14 3.52 58.51
  Q 4.73 56.38 6.28 54.83
  Q 24.38 36.85 41.84 19.38
  Q 42.49 18.73 43.31 18.08
  Q 43.56 17.89 43.69 17.61
  Z"
/>
<path fill="#040404" fill-opacity="0.067" d="
  M 182.55 21.49
  L 176.69 20.64
  Q 176.89 19.91 178.04 19.74
  Q 178.59 19.67 178.82 19.17
  Q 179.06 18.65 179.65 18.41
  Q 180.45 18.08 181.15 17.34
  Q 186.57 11.66 192.41 6.09
  Q 193.65 4.91 195.36 4.32
  Q 195.75 4.19 196.09 4.43
  Q 196.63 4.80 196.20 5.30
  Q 195.37 6.26 194.43 7.24
  Q 188.77 13.12 181.97 19.51
  Q 181.60 19.85 181.86 20.30
  L 182.55 21.49
  Z"
/>
<path fill="#040404" fill-opacity="0.067" d="
  M 215.52 38.54
  L 212.63 35.68
  L 240.21 8.93
  Q 240.40 8.74 240.35 8.47
  Q 240.31 8.31 240.36 8.17
  Q 240.41 8.06 240.50 7.97
  Q 242.01 6.65 243.60 5.65
  Q 244.59 5.03 244.39 6.18
  Q 244.18 7.44 242.74 8.14
  Q 242.30 8.36 242.24 8.84
  Q 242.13 9.67 241.38 10.03
  C 239.82 10.77 237.66 13.88 236.38 15.20
  Q 227.29 24.57 216.67 34.69
  Q 216.28 35.05 215.87 35.38
  Q 214.52 36.45 215.52 38.54
  Z"
/>
<path fill="#040404" fill-opacity="0.067" d="
  M 129.53 7.16
  Q 130.23 6.46 131.13 6.12
  Q 132.45 5.63 131.61 6.75
  Q 129.52 9.55 126.65 12.40
  Q 62.81 75.96 10.15 128.90
  Q 7.13 131.94 3.83 134.78
  Q 3.05 135.45 3.18 134.43
  Q 3.29 133.47 3.90 132.43
  Q 4.30 131.72 5.22 130.80
  Q 65.96 70.09 126.71 9.40
  Q 127.35 8.76 128.09 8.30
  Q 128.88 7.81 129.53 7.16
  Z"
/>
<path fill="#040404" fill-opacity="0.067" d="
  M 40.57 9.27
  Q 40.41 9.25 40.39 9.02
  Q 40.39 8.93 40.42 8.85
  Q 40.52 8.62 40.80 8.69
  A 0.43 0.43 0.0 0 0 41.33 8.20
  Q 41.23 7.55 41.82 7.44
  Q 42.30 7.35 42.42 6.89
  Q 42.74 5.75 43.81 6.27
  A 0.37 0.36 42.7 0 1 43.84 6.91
  Q 43.30 7.23 42.99 7.80
  Q 42.64 8.45 42.09 9.05
  Q 39.05 12.32 35.97 15.48
  Q 21.86 29.97 7.16 44.42
  Q 5.78 45.78 4.24 46.88
  A 0.28 0.27 50.6 0 1 3.87 46.84
  L 3.68 46.63
  Q 3.37 46.28 3.70 45.95
  Q 4.20 45.45 4.34 44.70
  Q 4.44 44.19 4.80 43.80
  Q 5.72 42.82 6.63 41.90
  Q 19.52 28.76 33.10 15.32
  Q 34.48 13.95 35.98 12.64
  Q 37.50 11.31 38.90 9.96
  Q 39.27 9.61 39.77 9.52
  Q 40.20 9.45 40.57 9.41
  Q 41.22 9.34 40.57 9.27
  Z"
/>
<path fill="#040404" fill-opacity="0.067" d="
  M 229.49 96.83
  L 229.81 92.92
  Q 230.93 93.08 231.14 92.27
  Q 278.96 44.44 313.63 10.05
  Q 314.97 8.73 316.53 7.42
  Q 316.84 7.15 317.25 7.07
  Q 317.48 7.03 317.70 7.09
  Q 318.34 7.25 317.97 7.80
  Q 315.99 10.77 313.63 13.13
  Q 273.28 53.28 232.96 93.46
  Q 231.30 95.11 229.49 96.83
  Z"
/>
<path fill="#040404" fill-opacity="0.067" d="
  M 123.17 31.04
  Q 115.50 36.42 110.16 44.06
  Q 109.77 41.31 107.64 43.87
  Q 107.00 44.64 106.21 45.43
  Q 61.55 90.01 8.04 143.47
  Q 6.46 145.05 4.38 146.75
  Q 3.73 147.27 3.42 146.50
  Q 3.35 146.34 3.37 146.16
  Q 3.40 145.92 3.53 145.73
  Q 4.11 144.90 4.67 143.99
  Q 5.26 143.04 5.97 142.33
  Q 48.01 100.51 90.46 57.76
  Q 101.90 46.24 112.44 36.28
  A 5.80 2.82 -45.0 0 0 113.02 35.70
  Q 124.07 24.14 136.14 12.31
  Q 138.18 10.31 140.47 8.38
  Q 140.85 8.06 141.36 8.01
  Q 141.74 7.98 142.08 7.82
  Q 143.97 6.95 142.67 8.57
  Q 141.74 9.72 140.69 10.82
  Q 130.38 21.57 119.92 31.47
  A 0.26 0.26 0.0 0 0 119.91 31.84
  L 120.09 32.03
  A 0.06 0.06 0.0 0 0 120.19 32.02
  Q 121.37 30.27 123.17 31.04
  Z"
/>
<path fill="#040404" fill-opacity="0.067" d="
  M 145.70 21.81
  L 136.42 24.37
  Q 137.33 22.82 139.28 22.09
  A 1.10 1.09 -0.7 0 0 139.93 21.43
  Q 140.14 20.86 140.52 20.47
  Q 143.67 17.19 148.41 13.02
  Q 149.39 12.15 150.52 11.46
  Q 150.93 11.21 151.17 10.80
  Q 151.82 9.66 152.91 9.51
  Q 153.44 9.44 153.21 9.92
  Q 153.07 10.21 152.81 10.39
  Q 152.40 10.68 152.38 11.17
  Q 152.36 11.79 151.92 12.11
  Q 151.55 12.37 151.25 12.68
  Q 147.73 16.39 143.77 20.16
  Q 143.35 20.55 143.86 20.82
  L 145.70 21.81
  Z"
/>
<path fill="#040404" fill-opacity="0.067" d="
  M 220.18 44.57
  L 217.53 40.92
  Q 218.62 41.40 219.57 41.41
  Q 220.08 41.41 220.43 41.05
  Q 230.44 30.88 240.52 20.77
  Q 246.47 14.80 252.24 10.14
  Q 254.75 8.11 252.68 10.59
  Q 249.93 13.90 246.61 17.27
  Q 235.06 28.96 222.86 40.91
  Q 221.98 41.78 220.91 42.42
  Q 220.50 42.67 220.42 43.14
  L 220.18 44.57
  Z"
/>
<path fill="#040404" fill-opacity="0.067" d="
  M 227.27 111.84
  L 228.27 105.58
  L 229.21 106.38
  Q 229.63 106.74 230.01 106.33
  Q 233.12 102.98 236.39 99.70
  Q 275.61 60.41 314.59 21.45
  Q 315.96 20.08 317.73 19.28
  Q 318.26 19.04 318.12 19.61
  Q 317.73 21.18 316.52 22.39
  Q 273.93 65.01 231.37 107.46
  C 230.82 108.01 230.00 108.32 229.46 109.18
  Q 228.54 110.64 227.27 111.84
  Z"
/>
<path fill="#525965" d="
  M 167.12 19.97
  L 170.52 20.16
  L 176.69 20.64
  L 182.55 21.49
  L 188.34 22.77
  L 194.18 24.51
  L 197.50 25.94
  L 200.81 27.47
  L 205.80 30.34
  L 208.32 32.08
  L 212.63 35.68
  L 215.52 38.54
  L 217.53 40.92
  L 220.18 44.57
  L 222.89 49.15
  L 224.47 52.46
  L 226.13 56.70
  L 227.97 63.35
  L 228.76 66.89
  L 229.68 72.82
  L 230.13 78.43
  L 230.26 83.50
  L 229.81 92.92
  L 229.49 96.83
  L 228.27 105.58
  L 227.27 111.84
  L 224.94 121.71
  L 222.37 130.51
  L 218.58 139.85
  L 212.10 152.05
  Q 203.14 165.65 189.45 174.10
  L 180.71 177.55
  L 171.69 179.79
  Q 169.27 179.57 167.70 179.98
  L 158.99 179.72
  L 154.17 178.82
  L 149.20 177.48
  L 145.17 176.00
  L 141.99 174.60
  L 137.14 171.71
  L 133.18 168.88
  L 130.38 166.62
  L 127.55 164.02
  L 124.20 160.39
  L 121.62 157.27
  L 119.36 154.21
  L 115.92 148.75
  L 114.52 146.09
  L 112.28 141.76
  L 110.49 137.90
  L 108.71 133.25
  L 106.84 127.76
  L 105.30 122.55
  L 104.47 118.96
  L 103.04 112.81
  L 102.21 108.77
  L 101.25 102.30
  L 100.69 97.55
  L 99.97 90.36
  L 99.76 86.70
  L 99.91 78.54
  L 100.14 73.28
  L 101.27 66.20
  L 103.16 58.93
  Q 105.61 50.97 110.16 44.06
  Q 115.50 36.42 123.17 31.04
  Q 129.38 26.90 136.42 24.37
  L 145.70 21.81
  Q 156.66 19.81 167.12 19.97
  Z"
/>
<path fill="#040404" fill-opacity="0.067" d="
  M 222.37 130.51
  L 224.94 121.71
  Q 225.59 123.66 227.45 121.21
  Q 228.37 120.01 228.95 119.44
  Q 233.51 114.90 237.96 110.45
  Q 278.29 70.12 315.77 32.75
  Q 316.39 32.13 317.08 32.67
  L 317.35 32.88
  A 0.57 0.57 0.0 0 1 317.45 33.68
  Q 315.52 36.11 313.54 38.08
  Q 280.04 71.55 245.46 105.94
  C 239.12 112.25 233.21 118.86 226.62 124.73
  Q 226.25 125.07 226.04 125.54
  Q 225.84 126.02 225.53 126.34
  Q 223.89 128.03 222.37 130.51
  Z"
/>
<path fill="#040404" fill-opacity="0.067" d="
  M 212.10 152.05
  L 218.58 139.85
  L 219.28 141.24
  Q 219.52 141.73 219.90 141.34
  Q 232.57 128.41 243.80 118.02
  Q 246.17 115.83 248.27 113.38
  Q 250.44 110.85 252.71 108.58
  Q 274.74 86.60 298.02 63.20
  Q 307.15 54.02 315.77 45.56
  Q 316.18 45.16 316.75 45.15
  Q 317.27 45.14 317.64 44.78
  Q 318.22 44.22 318.02 45.00
  Q 317.92 45.42 317.63 45.76
  Q 315.56 48.30 313.65 50.20
  Q 266.82 96.75 227.70 136.19
  Q 224.44 139.47 221.16 142.77
  Q 217.62 146.32 214.52 149.78
  Q 213.43 151.00 212.10 152.05
  Z"
/>
<path fill="#040404" fill-opacity="0.067" d="
  M 155.98 221.37
  L 153.41 218.71
  Q 155.95 218.13 157.68 216.10
  Q 158.62 214.99 159.57 214.03
  Q 179.85 193.44 199.39 174.02
  C 200.22 173.20 201.10 172.68 201.81 171.71
  Q 202.25 171.12 202.76 170.61
  Q 228.15 145.42 252.34 121.18
  Q 283.26 90.18 313.64 59.88
  Q 315.10 58.42 316.95 57.38
  Q 318.59 56.47 317.69 58.11
  Q 316.63 60.04 313.71 62.95
  Q 264.59 111.90 218.43 158.31
  Q 190.16 186.73 161.64 214.88
  Q 160.30 216.20 158.79 217.52
  Q 156.76 219.29 155.98 221.37
  Z"
/>
<path fill="#040404" fill-opacity="0.067" d="
  M 103.16 58.93
  L 101.27 66.20
  L 100.65 64.70
  Q 100.28 63.81 99.60 64.48
  Q 55.01 108.39 12.06 152.03
  Q 8.53 155.62 4.67 158.99
  Q 3.11 160.35 3.73 158.37
  Q 4.20 156.87 5.56 155.52
  Q 36.68 124.56 70.01 91.41
  Q 78.33 83.13 85.23 75.97
  Q 92.20 68.74 99.19 62.03
  Q 99.78 61.46 100.49 61.02
  Q 101.21 60.56 101.66 59.76
  Q 102.17 58.84 103.16 58.93
  Z"
/>
<path fill="#040404" fill-opacity="0.067" d="
  M 205.81 186.04
  Q 203.73 186.02 201.35 184.80
  Q 226.10 159.87 235.73 150.35
  Q 250.27 135.98 253.50 132.74
  L 267.16 119.03
  A 0.41 0.38 -60.0 0 1 267.53 118.92
  Q 267.82 118.98 267.87 118.71
  Q 267.90 118.51 268.04 118.35
  Q 271.63 114.56 276.78 109.44
  Q 298.17 88.17 314.49 71.58
  Q 315.00 71.07 315.72 71.01
  Q 315.93 70.99 316.13 71.00
  Q 316.95 71.04 316.52 71.74
  Q 315.40 73.54 312.98 75.95
  Q 254.18 134.38 205.93 183.18
  Q 205.51 183.61 204.92 183.64
  A 0.55 0.54 -86.7 0 0 204.41 184.10
  Q 204.29 184.85 205.00 185.25
  Q 205.70 185.64 205.81 186.04
  Z"
/>
<path fill="#040404" fill-opacity="0.067" d="
  M 100.14 73.28
  L 99.91 78.54
  Q 98.71 78.01 98.00 78.71
  Q 64.70 111.85 32.82 143.82
  Q 19.27 157.39 5.67 170.81
  A 2.24 2.23 21.7 0 1 4.18 171.45
  Q 3.05 171.49 3.56 170.75
  C 4.38 169.57 5.26 168.24 6.25 167.23
  Q 12.15 161.19 17.91 155.45
  Q 59.03 114.52 100.14 73.28
  Z"
/>
<path fill="#040404" fill-opacity="0.067" d="
  M 215.37 188.42
  L 210.02 187.07
  Q 210.76 186.72 211.49 186.42
  Q 212.25 186.09 212.81 185.53
  Q 261.73 136.80 310.57 87.97
  Q 313.01 85.53 315.73 83.07
  Q 316.19 82.66 316.78 82.73
  Q 318.03 82.89 317.23 83.86
  Q 314.58 87.10 311.68 89.98
  Q 264.98 136.49 215.72 185.93
  Q 215.28 186.37 215.22 186.99
  Q 215.16 187.67 215.37 188.42
  Z"
/>
<path fill="#040404" fill-opacity="0.067" d="
  M 99.76 86.70
  L 99.97 90.36
  Q 98.91 90.07 97.19 91.77
  Q 52.38 136.23 6.58 182.38
  C 5.79 183.18 4.82 183.73 4.09 184.62
  Q 3.78 184.99 3.34 184.81
  Q 3.16 184.73 3.04 184.59
  Q 2.86 184.36 2.99 184.10
  Q 3.98 182.15 5.20 180.93
  Q 25.79 160.37 43.42 142.80
  Q 47.34 138.89 51.25 134.93
  Q 52.02 135.05 52.04 134.26
  Q 61.34 124.74 70.89 115.48
  C 72.64 113.78 75.09 110.94 77.38 108.83
  Q 78.76 107.56 79.99 106.28
  Q 87.26 98.71 96.81 89.20
  Q 97.45 88.57 98.05 87.89
  Q 98.88 86.96 99.76 86.70
  Z"
/>
<path fill="#040404" fill-opacity="0.067" d="
  M 225.34 191.21
  L 221.52 190.04
  Q 225.32 185.84 232.09 179.09
  Q 271.14 140.17 304.02 107.02
  Q 309.71 101.28 316.19 95.41
  Q 317.49 94.23 317.17 95.96
  Q 316.98 96.98 316.22 97.73
  Q 272.72 141.02 228.99 185.01
  Q 227.14 186.86 225.20 188.52
  Q 224.19 189.39 225.34 191.21
  Z"
/>
<path fill="#040404" fill-opacity="0.067" d="
  M 100.69 97.55
  L 101.25 102.30
  L 100.01 102.18
  Q 99.50 102.13 99.14 102.49
  Q 40.47 161.00 7.69 193.94
  Q 5.40 196.25 2.75 197.76
  Q 2.06 198.15 2.42 197.45
  Q 4.12 194.17 7.67 190.67
  Q 40.70 158.06 100.69 97.55
  Z"
/>
<path fill="#040404" fill-opacity="0.067" d="
  M 235.07 194.30
  L 230.62 192.81
  Q 271.02 152.37 311.50 111.91
  Q 314.24 109.17 316.66 107.46
  Q 318.81 105.93 317.58 108.26
  Q 316.50 110.33 314.92 111.90
  Q 275.67 150.92 234.53 192.13
  Q 234.16 192.51 234.53 192.88
  Q 235.14 193.49 235.07 194.30
  Z"
/>
<path fill="#040404" fill-opacity="0.067" d="
  M 102.21 108.77
  L 103.04 112.81
  L 101.65 112.79
  Q 101.18 112.79 100.84 113.12
  Q 52.84 160.94 5.04 208.95
  Q 4.68 209.31 3.14 210.01
  Q 2.87 210.13 2.59 210.08
  Q 2.43 210.05 2.31 209.92
  Q 2.02 209.60 2.37 209.36
  Q 3.48 208.58 4.21 207.35
  Q 4.90 206.19 5.96 205.14
  Q 50.60 160.67 95.31 115.94
  Q 96.82 114.43 98.47 112.88
  Q 100.45 111.02 102.21 108.77
  Z"
/>
<path fill="#040404" fill-opacity="0.067" d="
  M 104.47 118.96
  L 105.30 122.55
  L 104.65 122.37
  Q 104.43 122.30 104.27 122.47
  Q 55.02 171.59 6.12 220.62
  Q 5.13 221.62 3.99 222.00
  Q 2.02 222.67 3.27 221.01
  Q 4.15 219.85 5.07 218.61
  Q 5.91 217.48 6.89 216.50
  Q 55.71 167.69 104.47 118.96
  Z"
/>
<path fill="#040404" fill-opacity="0.067" d="
  M 244.13 197.48
  L 240.02 195.99
  Q 277.95 158.10 315.69 120.31
  Q 316.28 119.73 317.27 119.56
  Q 317.50 119.52 317.73 119.56
  Q 318.57 119.69 318.04 120.36
  Q 315.92 123.06 313.36 125.63
  Q 278.96 159.92 244.55 194.37
  Q 244.32 194.61 243.97 194.64
  Q 243.50 194.68 243.45 195.16
  Q 243.34 196.22 244.13 197.48
  Z"
/>
<path fill="#040404" fill-opacity="0.067" d="
  M 106.84 127.76
  L 108.71 133.25
  Q 107.91 133.23 107.80 132.89
  A 0.85 0.83 -30.9 0 0 106.40 132.55
  Q 56.01 182.87 4.90 234.07
  A 0.53 0.52 35.5 0 1 4.28 234.17
  Q 3.71 233.89 3.67 233.28
  A 2.06 2.06 0.0 0 1 4.27 231.71
  Q 55.05 181.00 105.24 130.78
  Q 105.79 130.23 106.84 127.76
  Z"
/>
<path fill="#040404" fill-opacity="0.067" d="
  M 252.80 201.00
  L 247.64 198.82
  L 249.38 198.54
  Q 249.87 198.46 250.21 198.12
  Q 280.47 168.02 313.09 135.26
  Q 314.43 133.91 316.29 132.69
  Q 316.85 132.32 316.83 133.00
  Q 316.75 134.94 314.59 137.09
  Q 284.20 167.39 252.50 199.05
  Q 252.13 199.42 252.33 199.91
  L 252.80 201.00
  Z"
/>
<path fill="#040404" fill-opacity="0.067" d="
  M 110.49 137.90
  L 112.28 141.76
  Q 111.16 142.11 110.98 141.55
  A 0.45 0.45 0.0 0 0 110.24 141.38
  Q 58.03 193.48 7.35 244.36
  Q 6.55 245.16 5.47 245.46
  A 0.71 0.71 0.0 0 1 4.64 244.49
  Q 5.19 243.25 6.14 242.31
  Q 58.30 190.11 110.49 137.90
  Z"
/>
<path fill="#040404" fill-opacity="0.067" d="
  M 260.46 204.55
  L 257.88 203.34
  L 316.08 145.49
  Q 316.46 145.11 316.99 145.08
  Q 317.18 145.07 317.35 145.08
  A 0.34 0.33 -66.7 0 1 317.57 145.65
  C 317.12 146.13 316.99 146.82 316.55 147.27
  Q 288.98 175.24 262.31 201.27
  Q 261.60 201.97 260.69 202.76
  Q 260.31 203.09 260.36 203.59
  L 260.46 204.55
  Z"
/>
<path fill="#040404" fill-opacity="0.067" d="
  M 114.52 146.09
  L 115.92 148.75
  Q 113.03 150.75 107.14 156.64
  Q 78.53 185.28 56.03 208.05
  Q 53.52 210.59 51.30 213.06
  Q 51.19 213.18 51.13 213.34
  Q 51.06 213.53 51.16 213.64
  Q 51.47 214.00 51.90 213.78
  Q 53.23 213.08 54.36 213.30
  Q 43.32 220.58 35.81 231.03
  L 35.82 229.83
  A 0.72 0.72 0.0 0 0 34.59 229.31
  Q 19.92 244.14 5.62 258.32
  Q 4.54 259.39 3.10 260.05
  Q 2.69 260.24 2.41 259.87
  Q 2.31 259.74 2.33 259.57
  Q 2.35 259.28 2.60 259.12
  Q 3.58 258.50 4.15 257.47
  Q 4.82 256.27 5.76 255.33
  Q 24.50 236.64 43.55 217.67
  C 46.06 215.17 48.39 212.20 51.11 209.81
  Q 52.75 208.37 54.28 206.84
  Q 79.38 181.89 104.95 156.33
  Q 105.03 156.25 108.93 152.57
  Q 112.22 149.47 114.52 146.09
  Z"
/>
<path fill="#040404" fill-opacity="0.067" d="
  M 119.36 154.21
  L 121.62 157.27
  Q 119.21 156.55 118.68 157.79
  Q 118.53 158.15 118.25 158.43
  Q 103.50 173.11 88.59 188.10
  Q 83.05 193.67 77.55 198.77
  Q 76.46 199.78 77.94 199.72
  Q 78.63 199.69 78.79 200.31
  L 69.40 204.60
  L 119.36 154.21
  Z"
/>
<path fill="#040404" fill-opacity="0.067" d="
  M 269.27 209.25
  L 266.07 207.42
  Q 293.83 179.72 304.93 168.47
  C 305.51 167.88 306.13 167.61 306.66 166.99
  Q 311.56 161.29 317.12 157.37
  Q 317.78 156.90 317.59 157.69
  Q 317.36 158.66 316.74 159.40
  Q 313.35 163.38 308.20 168.52
  Q 286.11 190.52 269.31 207.25
  Q 268.98 207.58 269.06 208.04
  L 269.27 209.25
  Z"
/>
<path fill="#040404" fill-opacity="0.067" d="
  M 124.20 160.39
  L 127.55 164.02
  Q 126.73 164.10 125.91 163.79
  Q 125.43 163.61 125.06 163.97
  Q 112.56 176.14 100.12 188.86
  Q 98.63 190.38 96.93 191.51
  Q 96.76 191.62 96.83 191.80
  L 97.17 192.70
  A 0.36 0.35 66.4 0 0 97.66 192.90
  Q 100.23 191.58 102.33 191.80
  L 90.93 195.58
  Q 91.59 193.62 93.04 193.08
  Q 93.50 192.91 93.81 192.52
  Q 95.18 190.81 95.88 190.12
  Q 108.66 177.41 121.44 164.69
  Q 122.40 163.73 123.49 162.93
  A 0.97 0.96 -18.1 0 0 123.89 162.15
  Q 123.89 161.15 124.20 160.39
  Z"
/>
<path fill="#040404" fill-opacity="0.067" d="
  M 130.38 166.62
  L 133.18 168.88
  L 114.19 186.99
  Q 113.69 187.47 114.38 187.50
  L 117.36 187.61
  L 109.22 189.77
  L 129.48 169.05
  Q 129.82 168.70 129.95 168.22
  L 130.38 166.62
  Z"
/>
<path fill="#040404" fill-opacity="0.067" d="
  M 277.11 214.29
  L 273.50 211.82
  Q 275.51 211.15 277.02 209.38
  Q 278.28 207.91 279.42 206.77
  Q 296.70 189.40 314.52 171.62
  Q 315.55 170.59 316.87 170.00
  Q 318.98 169.07 317.55 170.88
  Q 315.58 173.37 313.40 175.54
  Q 295.48 193.35 277.57 211.29
  Q 277.24 211.62 276.76 211.65
  Q 276.27 211.67 276.34 212.16
  Q 276.48 213.12 277.11 214.29
  Z"
/>
<path fill="#040404" fill-opacity="0.067" d="
  M 137.14 171.71
  L 141.99 174.60
  Q 139.11 174.94 138.36 175.61
  Q 133.35 180.07 129.31 185.10
  L 125.38 185.71
  L 136.95 174.08
  Q 137.31 173.72 137.27 173.20
  L 137.14 171.71
  Z"
/>
<path fill="#040404" fill-opacity="0.067" d="
  M 189.45 174.10
  L 150.54 213.06
  Q 150.20 213.40 150.14 213.88
  Q 150.05 214.52 150.26 215.28
  L 147.35 211.96
  Q 149.01 212.19 149.86 211.37
  Q 156.96 204.60 163.78 197.53
  Q 172.63 188.35 181.81 179.49
  Q 181.91 179.39 181.87 179.26
  Q 181.84 179.12 181.88 178.97
  Q 181.91 178.88 181.98 178.81
  Q 182.24 178.61 182.51 178.72
  Q 183.16 179.00 182.78 178.40
  Q 182.45 177.88 181.99 177.92
  Q 180.74 178.04 180.71 177.55
  L 189.45 174.10
  Z"
/>
<path fill="#040404" fill-opacity="0.067" d="
  M 145.17 176.00
  L 149.20 177.48
  L 134.82 191.64
  Q 134.48 191.99 134.50 192.47
  L 134.63 194.69
  L 132.28 190.80
  Q 138.81 184.93 144.67 178.80
  Q 145.94 177.48 145.17 176.00
  Z"
/>
<path fill="#040404" fill-opacity="0.067" d="
  M 154.17 178.82
  L 158.99 179.72
  L 139.54 199.18
  Q 139.18 199.53 139.14 200.03
  L 139.02 201.27
  L 136.66 197.91
  L 138.16 198.03
  A 0.81 0.80 16.6 0 0 138.93 197.62
  Q 139.61 196.44 140.59 195.47
  Q 148.18 187.88 155.14 181.08
  A 0.48 0.48 0.0 0 0 155.11 180.37
  Q 154.44 179.83 154.17 178.82
  Z"
/>
<path fill="#040404" fill-opacity="0.067" d="
  M 171.69 179.79
  Q 158.31 193.59 144.85 206.55
  Q 144.48 206.91 144.54 208.55
  L 140.44 203.08
  Q 141.82 204.68 142.83 205.04
  Q 143.23 205.18 143.52 204.88
  L 167.71 180.67
  Q 167.88 180.49 167.78 180.26
  Q 167.70 180.10 167.70 179.98
  Q 169.27 179.57 171.69 179.79
  Z"
/>
<path fill="#040404" fill-opacity="0.067" d="
  M 283.88 219.51
  L 281.01 217.22
  L 315.65 183.08
  Q 316.05 182.69 316.61 182.66
  Q 317.02 182.64 317.28 182.33
  Q 317.68 181.83 317.65 182.47
  Q 317.61 183.35 317.22 183.85
  Q 314.54 187.33 310.26 191.50
  Q 297.19 204.24 284.21 217.49
  A 1.14 1.12 67.7 0 0 283.88 218.29
  L 283.88 219.51
  Z"
/>
<path fill="#525965" d="
  M 129.31 185.10
  L 132.28 190.80
  L 134.63 194.69
  L 136.66 197.91
  L 139.02 201.27
  Q 139.67 202.63 140.44 203.08
  L 144.54 208.55
  L 147.35 211.96
  L 150.26 215.28
  L 153.41 218.71
  L 155.98 221.37
  L 159.46 224.79
  L 162.58 227.74
  Q 163.53 229.10 164.74 229.58
  Q 165.22 229.76 165.60 229.42
  Q 180.13 216.46 191.37 200.88
  L 199.20 188.23
  Q 200.08 185.50 201.35 184.80
  Q 203.73 186.02 205.81 186.04
  L 210.02 187.07
  L 215.37 188.42
  L 221.52 190.04
  L 225.34 191.21
  L 230.62 192.81
  L 235.07 194.30
  L 240.02 195.99
  L 244.13 197.48
  L 247.64 198.82
  L 252.80 201.00
  L 257.88 203.34
  L 260.46 204.55
  L 266.07 207.42
  L 269.27 209.25
  L 273.50 211.82
  L 277.11 214.29
  L 281.01 217.22
  L 283.88 219.51
  L 287.15 222.52
  L 289.72 225.26
  L 292.69 228.97
  L 294.65 231.94
  L 297.40 237.20
  L 298.44 240.16
  L 299.91 247.99
  L 300.04 250.30
  L 300.06 261.07
  Q 299.94 261.39 300.02 262.04
  L 299.97 272.43
  L 299.01 278.76
  Q 296.77 286.34 291.16 291.15
  Q 286.14 295.46 278.81 297.56
  L 271.40 299.26
  L 263.46 300.13
  L 259.78 300.07
  L 251.03 300.10
  L 247.54 300.04
  L 237.58 300.04
  L 234.79 300.05
  L 225.11 300.05
  L 222.27 300.06
  L 213.17 300.14
  L 209.99 300.05
  L 200.36 300.05
  L 197.75 300.06
  L 188.05 300.16
  L 184.55 300.05
  L 174.77 300.04
  L 172.54 300.05
  L 163.15 300.13
  L 160.02 300.04
  L 150.30 300.04
  L 147.75 300.06
  L 138.48 300.15
  L 134.57 300.04
  L 124.84 300.05
  L 122.58 300.06
  L 113.18 300.14
  L 109.95 300.04
  L 100.35 300.05
  L 97.55 300.07
  L 88.52 300.17
  L 85.01 300.04
  L 75.37 300.05
  L 72.54 300.04
  L 63.82 299.85
  L 57.70 299.10
  L 53.73 298.25
  L 48.67 296.76
  L 44.35 294.82
  L 40.78 292.70
  Q 39.79 291.74 38.86 291.30
  L 35.65 287.87
  L 33.23 284.27
  L 31.32 279.70
  L 30.08 272.72
  L 29.78 268.88
  L 29.92 259.70
  L 29.97 257.70
  L 30.02 247.98
  L 30.65 243.00
  Q 32.33 236.88 35.81 231.03
  Q 43.32 220.58 54.36 213.30
  L 69.40 204.60
  L 78.79 200.31
  L 90.93 195.58
  L 102.33 191.80
  L 109.22 189.77
  L 117.36 187.61
  L 125.38 185.71
  L 129.31 185.10
  Z"
/>
<path fill="#040404" fill-opacity="0.067" d="
  M 199.20 188.23
  L 191.37 200.88
  Q 191.10 198.93 192.95 197.58
  Q 193.17 197.41 192.99 197.19
  L 192.67 196.79
  A 0.26 0.25 -42.9 0 0 192.29 196.78
  Q 190.51 198.59 188.73 200.34
  Q 176.01 212.90 163.14 225.61
  Q 162.70 226.04 162.62 226.55
  Q 162.54 227.09 162.58 227.74
  L 159.46 224.79
  Q 161.14 225.17 161.96 224.33
  Q 179.65 206.08 197.92 188.38
  Q 198.21 188.09 198.50 188.07
  Q 198.87 188.04 199.20 188.23
  Z"
/>
<path fill="#040404" fill-opacity="0.067" d="
  M 289.72 225.26
  L 287.15 222.52
  C 288.17 222.55 288.74 222.63 289.49 221.86
  Q 301.80 209.27 314.73 196.45
  Q 315.12 196.06 315.65 195.95
  Q 315.87 195.91 315.93 195.71
  Q 316.13 195.12 316.75 195.12
  L 317.26 195.12
  Q 317.99 195.12 317.58 195.73
  Q 316.49 197.35 315.06 198.82
  Q 303.62 210.52 292.13 221.65
  Q 291.30 222.45 290.24 223.19
  Q 289.82 223.48 289.79 223.99
  L 289.72 225.26
  Z"
/>
<path fill="#040404" fill-opacity="0.067" d="
  M 294.65 231.94
  L 292.69 228.97
  L 294.36 228.85
  Q 294.84 228.82 295.18 228.47
  Q 304.09 219.19 313.51 209.90
  Q 315.30 208.13 317.24 207.00
  Q 318.48 206.27 318.01 207.63
  Q 317.78 208.29 317.36 208.82
  Q 314.89 211.93 311.65 215.15
  Q 303.13 223.59 294.65 231.94
  Z"
/>
<path fill="#040404" fill-opacity="0.067" d="
  M 298.44 240.16
  L 297.40 237.20
  L 298.67 237.27
  Q 299.18 237.30 299.52 236.92
  Q 306.93 228.78 315.65 220.48
  Q 316.01 220.14 316.46 220.00
  Q 317.02 219.83 317.50 219.49
  Q 318.08 219.08 318.08 219.79
  Q 318.07 220.43 317.63 220.91
  Q 308.33 230.96 298.44 240.16
  Z"
/>
<path fill="#040404" fill-opacity="0.067" d="
  M 300.04 250.30
  L 299.91 247.99
  Q 300.10 247.92 300.25 247.91
  Q 300.70 247.87 301.00 247.53
  Q 306.80 241.18 315.99 232.70
  Q 316.65 232.09 317.52 232.32
  L 317.83 232.40
  Q 318.39 232.54 318.01 232.98
  Q 309.67 242.45 301.42 249.89
  Q 300.77 250.47 300.04 250.30
  Z"
/>
<path fill="#040404" fill-opacity="0.067" d="
  M 30.65 243.00
  L 30.02 247.98
  L 29.84 247.70
  Q 29.61 247.32 29.23 247.54
  Q 28.67 247.85 28.25 248.29
  Q 16.99 260.03 5.27 271.31
  C 4.59 271.96 3.68 272.15 2.92 272.68
  Q 2.46 273.00 2.59 272.45
  Q 2.76 271.69 3.16 271.14
  Q 4.68 269.11 6.44 267.28
  Q 18.23 255.03 30.65 243.00
  Z"
/>
<path fill="#040404" fill-opacity="0.067" d="
  M 300.02 262.04
  Q 299.94 261.39 300.06 261.07
  L 317.23 244.56
  A 0.54 0.54 0.0 0 1 317.99 244.57
  L 318.20 244.78
  Q 318.35 244.93 318.21 245.08
  Q 310.09 254.41 301.70 261.80
  Q 301.42 262.05 301.02 262.09
  Q 300.55 262.14 300.02 262.04
  Z"
/>
<path fill="#040404" fill-opacity="0.067" d="
  M 299.01 278.76
  L 299.97 272.43
  Q 301.36 272.18 302.61 270.87
  Q 309.44 263.66 317.21 256.85
  A 0.33 0.33 0.0 0 1 317.74 257.01
  L 317.84 257.35
  Q 318.06 258.11 317.54 258.71
  Q 310.48 266.73 302.90 273.66
  A 1.75 1.72 77.7 0 0 302.39 274.47
  Q 302.28 274.87 302.14 275.01
  Q 300.71 276.45 299.01 278.76
  Z"
/>
<path fill="#040404" fill-opacity="0.067" d="
  M 29.97 257.70
  L 29.92 259.70
  Q 29.34 259.57 29.04 259.87
  Q 17.54 271.51 4.62 284.22
  A 0.47 0.47 0.0 0 1 3.89 284.12
  L 3.67 283.75
  Q 3.18 282.93 3.85 282.25
  L 28.12 257.92
  Q 28.47 257.57 28.97 257.61
  L 29.97 257.70
  Z"
/>
<path fill="#040404" fill-opacity="0.067" d="
  M 29.78 268.88
  L 30.08 272.72
  Q 29.42 272.15 29.06 272.51
  Q 13.57 288.28 4.03 297.41
  Q 3.48 297.93 2.63 297.91
  Q 2.05 297.90 2.24 297.36
  Q 2.47 296.70 3.06 296.29
  A 2.01 1.86 87.8 0 0 3.66 295.59
  Q 3.90 295.11 4.13 294.61
  Q 4.37 294.09 4.73 293.72
  Q 16.78 281.27 29.78 268.88
  Z"
/>
<path fill="#040404" fill-opacity="0.067" d="
  M 304.50 284.60
  Q 304.19 284.83 303.91 285.10
  L 271.92 317.06
  A 1.18 1.18 0.0 0 1 270.40 317.18
  L 270.08 316.96
  A 0.52 0.52 0.0 0 1 270.01 316.18
  Q 277.67 308.23 285.80 300.24
  Q 293.41 292.75 299.93 286.10
  Q 307.37 278.51 314.73 271.45
  Q 315.15 271.05 315.74 271.02
  Q 316.16 271.00 316.53 270.86
  Q 317.36 270.55 316.91 271.31
  Q 315.78 273.21 312.77 276.26
  Q 309.53 279.55 306.21 282.67
  C 305.55 283.30 305.21 284.10 304.50 284.60
  Z"
/>
<path fill="#040404" fill-opacity="0.067" d="
  M 31.32 279.70
  L 33.23 284.27
  L 32.50 284.19
  Q 31.99 284.14 31.95 283.62
  Q 31.90 282.96 30.56 283.57
  A 1.26 1.16 -77.3 0 0 30.20 283.82
  Q 17.62 296.31 4.79 309.21
  Q 4.18 309.82 3.33 309.76
  Q 2.80 309.73 3.01 309.23
  Q 3.81 307.36 5.09 306.05
  Q 14.37 296.59 23.94 287.28
  Q 25.54 285.72 27.33 284.06
  Q 29.49 282.06 31.32 279.70
  Z"
/>
<path fill="#040404" fill-opacity="0.067" d="
  M 300.52 297.77
  Q 306.63 291.67 313.53 284.95
  Q 315.02 283.50 317.00 282.04
  A 0.50 0.50 0.0 0 1 317.75 282.23
  Q 318.09 282.95 317.42 283.75
  Q 315.58 285.95 313.32 288.26
  Q 301.86 299.97 289.79 311.97
  Q 287.32 314.44 284.71 316.60
  Q 284.24 316.99 283.69 316.73
  Q 283.41 316.61 283.11 316.65
  Q 282.30 316.75 282.78 316.08
  Q 283.84 314.62 284.96 313.48
  Q 292.82 305.45 300.52 297.77
  Z"
/>
<path fill="#040404" fill-opacity="0.067" d="
  M 35.65 287.87
  L 38.86 291.30
  L 36.70 290.54
  Q 36.22 290.37 35.86 290.73
  Q 24.88 301.92 12.27 314.43
  Q 9.98 316.70 7.13 318.42
  Q 6.28 318.92 6.52 317.97
  L 6.66 317.43
  Q 6.72 317.17 6.91 316.98
  L 35.65 287.87
  Z"
/>
<path fill="#040404" fill-opacity="0.067" d="
  M 40.78 292.70
  L 44.35 294.82
  Q 33.61 305.30 21.26 317.60
  Q 20.80 318.05 19.70 318.03
  Q 19.13 318.02 19.63 316.55
  A 1.14 1.03 -15.5 0 1 19.89 316.14
  L 41.03 294.94
  Q 41.39 294.58 41.16 294.14
  Q 40.81 293.48 40.78 292.70
  Z"
/>
<path fill="#040404" fill-opacity="0.067" d="
  M 316.06 297.80
  Q 306.81 307.39 298.10 315.81
  A 1.91 1.89 29.8 0 1 296.33 316.28
  Q 296.11 316.23 295.89 316.19
  A 0.49 0.48 28.3 0 1 295.64 315.37
  L 315.98 295.28
  Q 316.14 295.12 316.38 295.12
  L 317.18 295.12
  Q 317.54 295.12 317.44 295.47
  Q 317.04 296.79 316.06 297.80
  Z"
/>
<path fill="#040404" fill-opacity="0.067" d="
  M 48.67 296.76
  L 53.73 298.25
  L 34.00 317.22
  Q 33.65 317.56 33.18 317.41
  L 32.29 317.12
  A 0.27 0.27 0.0 0 1 32.16 316.69
  Q 34.57 313.69 36.39 311.86
  Q 42.04 306.21 47.81 300.57
  Q 49.77 298.65 48.67 296.76
  Z"
/>
<path fill="#040404" fill-opacity="0.067" d="
  M 278.81 297.56
  C 278.39 298.91 277.09 299.16 276.30 300.14
  Q 275.83 300.74 275.33 301.28
  Q 268.49 308.63 260.70 315.75
  Q 259.86 316.52 258.77 316.55
  Q 258.34 316.56 258.18 316.02
  A 0.82 0.81 -32.1 0 1 258.36 315.24
  Q 265.19 308.00 272.54 300.96
  Q 272.91 300.60 272.52 300.25
  L 271.40 299.26
  L 278.81 297.56
  Z"
/>
<path fill="#040404" fill-opacity="0.067" d="
  M 57.70 299.10
  L 63.82 299.85
  L 47.96 315.86
  Q 47.49 316.33 46.89 316.03
  L 46.51 315.84
  Q 45.76 315.47 46.34 314.85
  Q 51.42 309.43 57.52 303.83
  Q 58.72 302.73 59.67 301.48
  A 1.01 1.01 0.0 0 0 58.80 299.86
  Q 57.82 299.91 57.70 299.10
  Z"
/>
<path fill="#040404" fill-opacity="0.067" d="
  M 72.54 300.04
  L 75.37 300.05
  Q 75.03 301.69 74.69 302.06
  Q 72.10 304.85 62.29 314.43
  Q 61.42 315.27 60.41 316.00
  Q 59.37 316.75 58.50 317.65
  Q 58.20 317.95 57.78 317.87
  Q 57.57 317.83 57.38 317.91
  Q 55.99 318.48 56.88 317.28
  Q 59.28 314.04 62.27 311.12
  Q 67.22 306.26 72.29 301.16
  Q 72.77 300.67 72.54 300.04
  Z"
/>
<path fill="#040404" fill-opacity="0.067" d="
  M 85.01 300.04
  L 88.52 300.17
  L 72.89 316.13
  A 1.14 1.05 -74.0 0 1 72.40 316.43
  Q 71.76 316.62 71.42 317.26
  A 1.17 1.17 0.0 0 1 70.39 317.88
  L 69.76 317.88
  Q 69.21 317.88 69.48 317.39
  Q 70.31 315.88 71.24 314.91
  Q 79.80 305.87 84.36 301.86
  Q 85.45 300.90 85.01 300.04
  Z"
/>
<path fill="#040404" fill-opacity="0.067" d="
  M 97.55 300.07
  L 100.35 300.05
  Q 100.26 301.15 99.28 302.19
  Q 90.57 311.47 84.33 317.06
  Q 83.69 317.63 82.83 317.63
  L 82.03 317.63
  Q 81.22 317.63 81.76 317.03
  Q 90.29 307.59 95.47 302.99
  Q 97.35 301.33 97.55 300.07
  Z"
/>
<path fill="#040404" fill-opacity="0.067" d="
  M 109.95 300.04
  L 113.18 300.14
  L 98.62 315.33
  A 1.22 1.21 26.3 0 1 97.55 315.69
  Q 96.22 315.47 96.62 314.62
  Q 96.85 314.13 97.25 313.74
  Q 103.71 307.41 110.12 301.24
  Q 110.49 300.88 110.21 300.45
  L 109.95 300.04
  Z"
/>
<path fill="#040404" fill-opacity="0.067" d="
  M 122.58 300.06
  L 124.84 300.05
  L 124.66 301.75
  A 1.05 1.02 71.7 0 1 124.35 302.39
  L 109.76 316.89
  A 0.83 0.82 -50.9 0 1 108.74 317.00
  Q 108.34 316.76 107.98 316.93
  Q 106.16 317.80 107.50 316.29
  Q 114.16 308.85 121.94 301.68
  Q 122.70 300.98 122.58 300.06
  Z"
/>
<path fill="#040404" fill-opacity="0.067" d="
  M 134.57 300.04
  L 138.48 300.15
  Q 131.08 308.28 123.45 315.42
  Q 121.80 316.97 119.87 318.23
  Q 119.17 318.69 119.33 317.87
  Q 119.36 317.70 119.35 317.54
  Q 119.31 317.09 119.61 316.76
  Q 125.72 309.86 133.85 302.46
  Q 134.97 301.44 134.57 300.04
  Z"
/>
<path fill="#040404" fill-opacity="0.067" d="
  M 147.75 300.06
  L 150.30 300.04
  L 149.79 301.77
  A 0.72 0.69 76.1 0 1 149.61 302.08
  L 136.20 315.47
  Q 135.40 316.26 134.29 316.14
  L 133.53 316.07
  A 0.48 0.48 0.0 0 1 133.24 315.26
  Q 140.56 307.59 147.75 300.92
  Q 147.90 300.78 147.90 300.58
  Q 147.90 300.35 147.75 300.06
  Z"
/>
<path fill="#040404" fill-opacity="0.067" d="
  M 160.02 300.04
  L 163.15 300.13
  Q 157.37 307.24 148.68 314.98
  Q 148.02 315.58 147.24 315.14
  L 146.93 314.97
  A 0.44 0.44 0.0 0 1 146.84 314.28
  Q 153.25 307.74 159.47 301.79
  Q 160.28 301.02 160.02 300.04
  Z"
/>
<path fill="#040404" fill-opacity="0.067" d="
  M 172.54 300.05
  L 174.77 300.04
  L 174.71 301.62
  Q 174.69 302.10 174.34 302.44
  L 158.83 317.47
  Q 158.45 317.84 157.93 317.82
  Q 157.23 317.80 156.78 318.22
  Q 156.27 318.69 156.61 318.09
  Q 157.80 315.91 159.59 314.06
  Q 165.97 307.47 172.43 301.02
  Q 172.70 300.75 172.62 300.39
  L 172.54 300.05
  Z"
/>
<path fill="#040404" fill-opacity="0.067" d="
  M 184.55 300.05
  L 188.05 300.16
  Q 181.39 308.16 174.23 314.98
  Q 173.07 316.08 171.61 316.14
  A 0.66 0.66 0.0 0 1 171.11 315.02
  Q 177.63 308.19 184.13 302.14
  Q 185.14 301.19 184.55 300.05
  Z"
/>
<path fill="#040404" fill-opacity="0.067" d="
  M 197.75 300.06
  L 200.36 300.05
  Q 199.95 301.66 198.34 303.34
  Q 191.93 310.00 185.65 315.89
  A 1.77 1.76 -59.6 0 1 184.02 316.32
  L 183.52 316.20
  Q 182.45 315.94 183.23 315.16
  L 197.77 300.65
  Q 197.92 300.50 197.84 300.31
  L 197.75 300.06
  Z"
/>
<path fill="#040404" fill-opacity="0.067" d="
  M 209.99 300.05
  L 213.17 300.14
  Q 205.98 308.66 197.57 316.14
  Q 197.05 316.61 196.75 315.97
  L 196.54 315.52
  Q 196.23 314.86 196.74 314.34
  Q 202.39 308.52 209.91 301.66
  Q 210.79 300.86 209.99 300.05
  Z"
/>
<path fill="#040404" fill-opacity="0.067" d="
  M 222.27 300.06
  L 225.11 300.05
  L 224.87 301.52
  A 1.09 1.07 -18.0 0 1 224.59 302.06
  L 210.21 316.54
  A 2.13 2.12 -64.3 0 1 208.48 317.15
  Q 208.10 317.11 207.71 317.17
  Q 206.31 317.37 207.29 316.35
  Q 216.25 307.01 222.43 300.93
  Q 222.67 300.70 222.27 300.06
  Z"
/>
<path fill="#040404" fill-opacity="0.067" d="
  M 234.79 300.05
  L 237.58 300.04
  C 237.32 300.71 237.19 301.50 236.70 302.04
  Q 230.27 309.18 221.13 317.50
  A 1.61 1.61 0.0 0 1 219.71 317.89
  L 219.43 317.83
  A 0.39 0.39 0.0 0 1 219.22 317.18
  Q 226.03 309.60 234.86 301.48
  Q 235.76 300.66 234.79 300.05
  Z"
/>
<path fill="#040404" fill-opacity="0.067" d="
  M 247.54 300.04
  L 251.03 300.10
  Q 242.75 309.75 233.27 317.80
  A 1.46 1.45 35.7 0 1 231.78 318.04
  L 231.46 317.91
  A 0.38 0.38 0.0 0 1 231.33 317.29
  Q 240.61 307.60 247.37 300.99
  Q 247.59 300.77 247.62 300.55
  Q 247.65 300.28 247.54 300.04
  Z"
/>
<path fill="#040404" fill-opacity="0.067" d="
  M 259.78 300.07
  L 263.46 300.13
  L 247.78 315.89
  Q 247.28 316.40 246.63 316.11
  L 246.37 316.00
  Q 245.90 315.80 246.15 315.34
  Q 246.62 314.47 247.43 313.68
  Q 254.26 307.01 259.96 301.15
  Q 260.24 300.86 260.21 300.61
  Q 260.17 300.29 259.78 300.07
  Z"
/>
<path fill="#040404" fill-opacity="0.067" d="
  M 317.7541 307.3121
  A 7.32 1.22 -44.8 0 1 313.4197 313.3357
  A 7.32 1.22 -44.8 0 1 307.3659 317.6279
  A 7.32 1.22 -44.8 0 1 311.7003 311.6043
  A 7.32 1.22 -44.8 0 1 317.7541 307.3121
  Z"
/>
</svg>
